<svg width="23" height="26" viewBox="0 0 23 26" fill="none" xmlns="http://www.w3.org/2000/svg">
<path fill-rule="evenodd" clip-rule="evenodd" d="M15.8758 0C16.1071 1.56907 15.4683 3.10633 14.6257 4.19391C13.7245 5.36046 12.1709 6.2627 10.6655 6.21562C10.3907 4.71338 11.0941 3.16554 11.9502 2.12504C12.8896 0.976694 14.4989 0.0956925 15.8758 0ZM20.3985 22.0858C21.1747 20.8965 21.4641 20.2964 22.0665 18.9537C17.6847 17.2874 16.9831 11.0581 21.3191 8.6672C19.9969 7.00852 18.138 6.047 16.3836 6.047C15.1189 6.047 14.2529 6.3769 13.4656 6.6768C12.8091 6.9268 12.2079 7.15589 11.4763 7.15589C10.6855 7.15589 9.98558 6.90478 9.25225 6.64204C8.44669 6.35318 7.60121 6.05005 6.552 6.05005C4.58332 6.05005 2.48784 7.25306 1.15856 9.3098C-0.709125 12.2064 -0.390311 17.6519 2.63874 22.2908C3.72142 23.9511 5.16752 25.8164 7.05987 25.8332C7.84487 25.8408 8.36685 25.6066 8.93227 25.353C9.57929 25.0628 10.2827 24.7474 11.5004 24.741C12.7252 24.7336 13.4174 25.0528 14.0556 25.3473C14.6064 25.6014 15.1172 25.837 15.8957 25.8286C17.7892 25.8134 19.3158 23.7461 20.3985 22.0858Z" fill="#0B0B0A"/>
</svg>
