<svg width="28" height="21" viewBox="0 0 28 21" fill="none" xmlns="http://www.w3.org/2000/svg">
<path d="M23.3146 1.74523C21.5694 0.931691 19.6799 0.341221 17.7117 6.03568e-05C17.6944 -0.00049154 17.6773 0.00274697 17.6614 0.00954824C17.6455 0.0163495 17.6314 0.0265484 17.6199 0.0394253C17.3837 0.472437 17.1081 1.03666 16.9244 1.46968C14.8368 1.15476 12.7137 1.15476 10.6261 1.46968C10.4424 1.02354 10.1668 0.472437 9.91749 0.0394253C9.90437 0.0131822 9.86501 6.03568e-05 9.82564 6.03568e-05C7.85741 0.341221 5.98102 0.931691 4.22273 1.74523C4.20961 1.74523 4.19649 1.75835 4.18337 1.77147C0.614305 7.11195 -0.369813 12.3081 0.115685 17.4517C0.115685 17.478 0.128807 17.5042 0.15505 17.5174C2.51693 19.2494 4.78696 20.2991 7.03075 20.9946C7.07012 21.0077 7.10948 20.9946 7.1226 20.9683C7.64746 20.2466 8.11984 19.4856 8.52661 18.6852C8.55285 18.6327 8.52661 18.5802 8.47412 18.5671C7.72619 18.2784 7.01763 17.9372 6.32219 17.5436C6.2697 17.5174 6.2697 17.4386 6.30906 17.3993C6.4534 17.2943 6.59774 17.1762 6.74208 17.0712C6.76832 17.045 6.80768 17.045 6.83393 17.0581C11.3477 19.1182 16.2158 19.1182 20.6772 17.0581C20.7034 17.045 20.7428 17.045 20.769 17.0712C20.9134 17.1893 21.0577 17.2943 21.202 17.4124C21.2545 17.4517 21.2545 17.5305 21.1889 17.5567C20.5066 17.9635 19.7849 18.2915 19.037 18.5802C18.9845 18.5933 18.9714 18.6589 18.9845 18.6983C19.4044 19.4987 19.8768 20.2598 20.3885 20.9814C20.4279 20.9946 20.4672 21.0077 20.5066 20.9946C22.7635 20.2991 25.0335 19.2494 27.3954 17.5174C27.4217 17.5042 27.4348 17.478 27.4348 17.4517C28.0121 11.5077 26.4769 6.3509 23.3671 1.77147C23.354 1.75835 23.3409 1.74523 23.3146 1.74523ZM9.20893 14.3157C7.85741 14.3157 6.72895 13.0691 6.72895 11.5339C6.72895 9.99869 7.83117 8.75214 9.20893 8.75214C10.5998 8.75214 11.702 10.0118 11.6889 11.5339C11.6889 13.0691 10.5867 14.3157 9.20893 14.3157ZM18.3547 14.3157C17.0031 14.3157 15.8747 13.0691 15.8747 11.5339C15.8747 9.99869 16.9769 8.75214 18.3547 8.75214C19.7455 8.75214 20.8478 10.0118 20.8346 11.5339C20.8346 13.0691 19.7455 14.3157 18.3547 14.3157Z" fill="#E7DAE3"/>
</svg>
