<svg width="21" height="21" viewBox="0 0 21 21" fill="none" xmlns="http://www.w3.org/2000/svg">
<g clip-path="url(#clip0_386_8545)">
<path d="M20.5228 10.6965C20.5228 9.83612 20.4529 9.20829 20.3017 8.55721H10.4714V12.4404H16.2416C16.1253 13.4055 15.4971 14.8588 14.1011 15.8354L14.0815 15.9654L17.1896 18.3718L17.405 18.3933C19.3826 16.5679 20.5228 13.8821 20.5228 10.6965Z" fill="#4285F4"/>
<path d="M10.4713 20.9279C13.2981 20.9279 15.6713 19.9977 17.4048 18.3933L14.1009 15.8354C13.2167 16.4516 12.0301 16.8818 10.4713 16.8818C7.70251 16.8818 5.35256 15.0564 4.51487 12.5335L4.39209 12.5439L1.16019 15.0436L1.11792 15.161C2.83966 18.5792 6.37624 20.9279 10.4713 20.9279Z" fill="#34A853"/>
<path d="M4.51472 12.5335C4.29368 11.8824 4.16577 11.1848 4.16577 10.4639C4.16577 9.74305 4.29368 9.04548 4.50309 8.3944L4.49723 8.25574L1.22483 5.71586L1.11776 5.76676C0.408152 7.18522 0.000976562 8.77809 0.000976562 10.4639C0.000976562 12.1498 0.408152 13.7426 1.11776 15.161L4.51472 12.5335Z" fill="#FBBC05"/>
<path d="M10.4713 4.04603C12.4373 4.04603 13.7635 4.89476 14.5197 5.60403L17.4746 2.72062C15.6598 1.03477 13.2981 0 10.4713 0C6.37624 0 2.83966 2.34855 1.11792 5.76674L4.50325 8.39439C5.35256 5.87142 7.70251 4.04603 10.4713 4.04603Z" fill="#EB4335"/>
</g>
<defs>
<clipPath id="clip0_386_8545">
<rect width="20.5333" height="21" fill="white"/>
</clipPath>
</defs>
</svg>
