<svg width="25" height="21" viewBox="0 0 25 21" fill="none" xmlns="http://www.w3.org/2000/svg">
<path d="M12.15 5.52519L12.2 6.40019L11.3 6.30019C8 5.87519 5.125 4.45019 2.7 2.07519L1.5 0.875192L1.2 1.75019C0.55 3.70019 0.95 5.77519 2.325 7.15019C3.025 7.92519 2.875 8.02519 1.625 7.57519C1.2 7.42519 0.825 7.32519 0.775 7.37519C0.65 7.50019 1.075 9.17519 1.425 9.82519C1.9 10.7252 2.85 11.6252 3.9 12.1502L4.8 12.5752L3.75 12.6002C2.725 12.6002 2.7 12.6002 2.8 13.0002C3.15 14.1752 4.6 15.4252 6.175 15.9752L7.3 16.3752L6.325 16.9502C4.875 17.8002 3.175 18.2752 1.475 18.3002C0.675 18.3252 0 18.4002 0 18.4502C0 18.6252 2.2 19.6502 3.5 20.0502C7.325 21.2502 11.9 20.7252 15.35 18.7002C17.775 17.2502 20.225 14.4002 21.35 11.6252C21.975 10.1502 22.575 7.45019 22.575 6.15019C22.575 5.32519 22.625 5.20019 23.65 4.20019C24.25 3.62519 24.8 2.97519 24.9 2.80019C25.1 2.45019 25.075 2.45019 24.15 2.75019C22.625 3.30019 22.4 3.22519 23.15 2.42519C23.725 1.82519 24.4 0.775192 24.4 0.475192C24.4 0.400192 24.125 0.500192 23.8 0.675192C23.475 0.850192 22.75 1.12519 22.225 1.27519L21.25 1.60019L20.35 1.00019C19.875 0.675192 19.175 0.300192 18.825 0.200192C17.9 -0.0748081 16.5 -0.0248081 15.675 0.275192C13.4 1.07519 11.975 3.20019 12.15 5.52519Z" fill="#E7DAE3"/>
</svg>
