<svg width="160" height="32" viewBox="0 0 160 32" fill="none" xmlns="http://www.w3.org/2000/svg">
<mask id="mask0_204_3827" style="mask-type:alpha" maskUnits="userSpaceOnUse" x="0" y="0" width="33" height="32">
<path d="M32.9374 15.4864H16.3531V31.8973H0V0H32.9374V15.4864Z" fill="#B4F048"/>
</mask>
<g mask="url(#mask0_204_3827)">
<path fill-rule="evenodd" clip-rule="evenodd" d="M9.07219 1.44465C7.31031 1.44465 2.36913 1.44464 2.36913 1.44464C2.36913 1.44464 2.36914 6.2076 2.36914 8.14771V22.7095C2.36914 26.4115 5.3702 29.4126 9.07219 29.4126H23.634C27.336 29.4126 30.337 26.4115 30.337 22.7095V8.1477C30.337 4.44571 27.336 1.44465 23.634 1.44465H9.07219ZM23.5184 8.26327H9.30333V22.4784H23.5184V8.26327Z" fill="#B4F048"/>
</g>
<path d="M16.3531 15.6019V22.4205H21.9582L28.0257 29.528L32.838 26L23.5184 15.6019H16.3531Z" fill="#B4F048"/>
<path d="M50.584 22H52.586V15.862H60.418V22H62.398V16.28C62.398 15.378 62.046 14.652 60.814 14.652H59.67C61.32 14.234 62.376 13.068 62.376 10.736C62.376 7.304 59.956 6.49 56.326 6.49H50.584V22ZM52.586 14.146V8.206H56.326C58.834 8.206 60.396 8.426 60.396 11.176C60.396 13.86 58.834 14.146 56.326 14.146H52.586ZM64.7094 22H66.6674V17.358C66.6674 14.41 68.1414 12.518 70.5174 12.518C72.3874 12.518 73.2454 13.398 73.2454 15.642V22H75.2034V15.422C75.2034 12.474 73.7074 10.846 71.1994 10.846C68.7794 10.846 67.2614 12.078 66.6674 14.036V5.83H64.7094V22ZM87.9302 11.066H85.9722V15.708C85.9722 18.656 84.4982 20.548 82.1222 20.548C80.2522 20.548 79.3942 19.668 79.3942 17.424V11.066H77.4362V17.644C77.4362 20.592 78.9322 22.22 81.4402 22.22C83.8602 22.22 85.3782 20.988 85.9722 19.03V24.618H78.0522V26.29H86.4122C87.4462 26.29 87.9302 25.828 87.9302 24.948V11.066ZM97.5351 20.328L93.6631 20.35V12.738H97.0951V11.066H93.6631V7.7L91.7051 8.294V11.066H89.2851V12.738H91.7051V20.46C91.7051 21.516 92.2111 22 93.2451 22H97.5351V20.328ZM99.5691 22H101.527V17.358C101.527 14.41 103.001 12.518 105.377 12.518C107.247 12.518 108.105 13.398 108.105 15.642V22H110.063V15.422C110.063 12.474 108.567 10.846 106.059 10.846C103.639 10.846 102.121 12.078 101.527 14.036V5.83H99.5691V22ZM112.363 22H114.321V17.468C114.321 14.542 115.399 12.518 117.709 12.518C119.337 12.518 119.887 13.706 119.887 15.818V22H121.845V17.468C121.845 14.542 122.923 12.518 125.233 12.518C126.861 12.518 127.411 13.706 127.411 15.818V22H129.369V15.576C129.369 12.65 128.181 10.846 125.695 10.846C123.473 10.846 122.153 12.166 121.559 13.794C121.185 11.968 120.129 10.846 118.281 10.846C116.125 10.846 114.871 12.188 114.321 13.816V11.066H112.363V22ZM131.776 22H133.778V15.466H141.104V13.772H133.778V8.206H142.072V6.49H131.776V22ZM143.035 22H150.933V20.328H147.875V12.342C147.875 11.44 147.435 11.066 146.643 11.066H143.805V12.738H146.071V20.328H143.035V22ZM145.191 7.722C145.191 8.58 145.873 9.196 146.731 9.196C147.611 9.196 148.315 8.58 148.315 7.722C148.315 6.864 147.611 6.248 146.731 6.248C145.873 6.248 145.191 6.864 145.191 7.722ZM158.929 20.328L155.057 20.35V12.738H158.489V11.066H155.057V7.7L153.099 8.294V11.066H150.679V12.738H153.099V20.46C153.099 21.516 153.605 22 154.639 22H158.929V20.328Z" fill="#EFEEEC"/>
</svg>
